<!-- Файл: aura-brew-sprite.svg -->
<svg xmlns="http://www.w3.org/2000/svg" style="display: none;">
  <defs>
    <!-- Символ 1: только волна (аура) -->
    <symbol id="aura-symbol" viewBox="0 0 200 60">
      <path d="M10,30 Q30,0 50,30 T90,30 Q110,0 130,30 T170,30 Q190,0 210,30" 
            stroke="none" 
            fill="currentColor"/>
    </symbol>
    
    <!-- Символ 2: полный логотип с текстом -->
    <symbol id="aura-brew-logo" viewBox="0 0 400 120">
      <path class="logo-symbol" 
            d="M70,60 Q90,30 110,60 T150,60 Q170,30 190,60 T230,60 Q250,30 270,60" 
            stroke="none" 
            fill="currentColor"/>
      <text class="logo-text" 
            x="70" y="95" 
            font-family="Arial, sans-serif" 
            font-size="42" 
            font-weight="bold" 
            letter-spacing="1">Aura Brew</text>
    </symbol>
    
    <!-- Символ 3: только текст -->
    <symbol id="aura-brew-text" viewBox="0 0 300 50">
      <text x="0" y="35" 
            font-family="Arial, sans-serif" 
            font-size="42" 
            font-weight="bold" 
            letter-spacing="1" 
            fill="currentColor">Aura Brew</text>
    </symbol>
  </defs>
  <!--cart-->
  <symbol id="cart-icon" viewBox="0 0 19 22">
    <g id="basket">
<path id="Rectangle-10" fill-rule="evenodd" clip-rule="evenodd" d="M18.9474 5.95123H0V17.7407C0 19.9499 1.79086 21.7407 4 21.7407H14.9474C17.1565 21.7407 18.9474 19.9499 18.9474 17.7407V5.95123ZM4 20.2407C2.61929 20.2407 1.5 19.1214 1.5 17.7407V7.45123H17.4474V17.7407C17.4474 19.1214 16.3281 20.2407 14.9474 20.2407H4Z" fill="currentColor"/>
<path id="Rectangle-3" d="M6.01315 11.1525V4.96053C6.01315 3.04933 7.56248 1.5 9.47368 1.5C11.3849 1.5 12.9342 3.04933 12.9342 4.96053V11.1525C12.9342 11.5667 13.27 11.9025 13.6842 11.9025C14.0984 11.9025 14.4342 11.5667 14.4342 11.1525V4.96053C14.4342 2.2209 12.2133 0 9.47368 0C6.73406 0 4.51315 2.2209 4.51315 4.96053V11.1525C4.51315 11.5667 4.84894 11.9025 5.26315 11.9025C5.67737 11.9025 6.01315 11.5667 6.01315 11.1525Z" fill="currentColor"/>
</g>
  </symbol>
  <!--close-->
  <symbol id="icon-close" viewBox="0 0 21 21">
  <path
    fill-rule="evenodd"
    clip-rule="evenodd"
    d="M20.2384 2.56065C20.8242 1.97487 20.8242 1.02512 20.2384 0.439339C19.6526 -0.146446 18.7028 -0.146446 18.117 0.439339L10.3389 8.21748L2.56072 0.439367C1.97493 -0.146418 1.02519 -0.146419 0.439399 0.439366C-0.146388 1.02515 -0.146388 1.9749 0.439399 2.56068L8.21755 10.3388L0.43934 18.117C-0.146447 18.7028 -0.146447 19.6525 0.43934 20.2383C1.02513 20.8241 1.97488 20.8241 2.56066 20.2383L10.3389 12.4601L18.1171 20.2383C18.7029 20.8241 19.6526 20.8241 20.2384 20.2383C20.8242 19.6525 20.8242 18.7028 20.2384 18.117L12.4602 10.3388L20.2384 2.56065Z"
    fill="currentColor"
  />
</symbol>
<!--trash-->
<symbol id="icon-trash" viewBox="0 0 24 24" fill="none">
  <path stroke-linecap="round" stroke-linejoin="round" d="m14.74 9-.346 9m-4.788 0L9.26 9m9.968-3.21c.342.052.682.107 1.022.166m-1.022-.165L18.16 19.673a2.25 2.25 0 0 1-2.244 2.077H8.084a2.25 2.25 0 0 1-2.244-2.077L4.772 5.79m14.456 0a48.108 48.108 0 0 0-3.478-.397m-12 .562c.34-.059.68-.114 1.022-.165m0 0a48.11 48.11 0 0 1 3.478-.397m7.5 0v-.916c0-1.18-.91-2.164-2.09-2.201a51.964 51.964 0 0 0-3.32 0c-1.18.037-2.09 1.022-2.09 2.201v.916m7.5 0a48.667 48.667 0 0 0-7.5 0"  stroke-width="1.5" stroke="currentColor" class="size-6"/>
</symbol>
</svg>